<?xml version="1.0" standalone="no"?>
<!DOCTYPE svg PUBLIC "-//W3C//DTD SVG 20010904//EN"
 "http://www.w3.org/TR/2001/REC-SVG-20010904/DTD/svg10.dtd">
<svg version="1.0" xmlns="http://www.w3.org/2000/svg"
 width="91.000000pt" height="73.000000pt" viewBox="0 0 91.000000 73.000000"
 preserveAspectRatio="xMidYMid meet">

<g transform="translate(0.000000,73.000000) scale(0.100000,-0.100000)"
fill="#000000" stroke="none">
<path d="M182 654 c-22 -15 -22 -17 -22 -303 0 -266 1 -289 18 -304 16 -15 49
-17 254 -17 272 0 268 -1 268 88 0 49 1 52 26 52 23 0 25 3 22 43 -2 35 -7 43
-25 45 -15 2 -23 10 -23 22 0 12 8 20 23 22 18 2 23 10 25 46 3 39 1 42 -22
42 -21 0 -26 5 -26 24 0 18 6 25 23 28 19 3 22 9 22 43 0 34 -3 40 -22 43 -21
3 -23 9 -23 57 0 84 -2 85 -270 85 -188 0 -229 -3 -248 -16z m476 -306 l-3
-273 -227 -3 -228 -2 0 275 0 275 230 0 230 0 -2 -272z"/>
<path d="M369 501 c-37 -37 -38 -79 -3 -120 20 -24 34 -31 61 -31 46 0 93 45
93 90 0 43 -47 90 -90 90 -22 0 -41 -9 -61 -29z"/>
<path d="M317 348 c-33 -26 -49 -117 -27 -159 10 -17 22 -19 140 -19 122 0
130 1 141 21 19 36 6 117 -24 147 -26 26 -27 26 -62 9 -44 -21 -85 -22 -111
-2 -24 18 -36 18 -57 3z"/>
</g>
</svg>
